<?xml version="1.0" encoding="utf-8"?>
<!-- Generator: Adobe Illustrator 16.0.0, SVG Export Plug-In . SVG Version: 6.00 Build 0)  -->
<!DOCTYPE svg PUBLIC "-//W3C//DTD SVG 1.1//EN" "http://www.w3.org/Graphics/SVG/1.1/DTD/svg11.dtd">
<svg version="1.1" id="Layer_1" xmlns="http://www.w3.org/2000/svg" xmlns:xlink="http://www.w3.org/1999/xlink" x="0px" y="0px"
	 width="120px" height="120px" viewBox="-22 -22 120 120" enable-background="new -22 -22 120 120" xml:space="preserve">
<path fill="#FFFFFF" d="M37.999-21.667C5.047-21.667-21.667,5.047-21.667,38S5.047,97.667,37.999,97.667
	c32.953,0,59.668-26.714,59.668-59.667S70.952-21.667,37.999-21.667z M63.334,57.791H12.666v-9.5h4.75v-3.166h3.168v1.584h1.582
	v-9.5h1.584v-3.167h4.75v15.833h3.166v-6.334h4.75v3.168h3.168V24.542h1.582v-1.583v-4.75h1.584v4.75h3.166v-4.75H47.5v4.75v1.583
	h1.584v12.667h4.75v9.5H57v-3.168h1.584v-1.582h3.166v1.582h1.584V57.791z"/>
</svg>
