<?xml version="1.0" encoding="utf-8"?>
<!-- Generator: Adobe Illustrator 16.0.0, SVG Export Plug-In . SVG Version: 6.00 Build 0)  -->
<!DOCTYPE svg PUBLIC "-//W3C//DTD SVG 1.1//EN" "http://www.w3.org/Graphics/SVG/1.1/DTD/svg11.dtd">
<svg version="1.1" id="Layer_1" xmlns="http://www.w3.org/2000/svg" xmlns:xlink="http://www.w3.org/1999/xlink" x="0px" y="0px"
	 width="120px" height="120px" viewBox="0 0 120 120" enable-background="new 0 0 120 120" xml:space="preserve">
<path fill="#FFFFFF" d="M59.999,0.333C27.047,0.333,0.333,27.047,0.333,60s26.714,59.667,59.666,59.667
	c32.953,0,59.668-26.714,59.668-59.667S92.952,0.333,59.999,0.333z M78.43,74.655l-1.518,1.875l-2.53,3.129l-1.013,1.252
	l-1.014-0.821l1.011-1.251l-13.172-10.65l-2.528,3.129l4.062,9.487l-1.52,1.879l-1.519-0.195l-6.082-4.918l0.506-0.624l-1.009-0.816
	l2.022-2.502l-0.255-0.206l-3.797,3.137l-4.053-3.277l2.273-4.37l-0.254-0.204l-2.024,2.502l-1.01-0.817l-0.505,0.624L38.424,66.1
	l-0.51-1.445l1.518-1.878l10.127,1.985l2.531-3.128L38.921,50.984l-1.012,1.25l-1.017-0.821l1.012-1.252l2.532-3.128l1.515-1.876
	c0.554-0.684,1.233-1.073,1.521-0.841c0.282,0.229,0.049,0.977-0.503,1.664l-1.091,1.345l15.776,3.288l1.012-1.256l5.567-2.736
	l6.575-6.064c6.587-3.987,7.598-3.17,7.598-3.17s1.009,0.816-1.512,8.091l-4.555,7.697l-1.513,6.017l-1.014,1.254l6.512,14.737
	l1.09-1.348c0.554-0.686,1.24-1.067,1.52-0.84C79.221,73.227,78.981,73.971,78.43,74.655z"/>
</svg>
