<?xml version="1.0" encoding="utf-8"?>
<!-- Generator: Adobe Illustrator 16.0.0, SVG Export Plug-In . SVG Version: 6.00 Build 0)  -->
<!DOCTYPE svg PUBLIC "-//W3C//DTD SVG 1.1//EN" "http://www.w3.org/Graphics/SVG/1.1/DTD/svg11.dtd">
<svg version="1.1" id="Layer_1" xmlns="http://www.w3.org/2000/svg" xmlns:xlink="http://www.w3.org/1999/xlink" x="0px" y="0px"
	 width="120px" height="120px" viewBox="-22 -22 120 120" enable-background="new -22 -22 120 120" xml:space="preserve">
<path fill="#FFFFFF" d="M37.999-21.667C5.047-21.667-21.667,5.047-21.667,38S5.047,97.667,37.999,97.667
	c32.953,0,59.668-26.714,59.668-59.667S70.952-21.667,37.999-21.667z M38.81,51.071c0,1.578-1.706,2.857-3.811,2.857
	c-2.104,0-3.809-1.279-3.809-2.857s1.705-2.857,3.809-2.857l0.953,0.09L35.81,37.571l-9,1.75v14.75c0,1.578-1.706,2.857-3.811,2.857
	c-2.104,0-3.809-1.279-3.809-2.857s1.705-2.857,3.809-2.857l0.811,0.107v-14.25l15-3V51.071z M46.81,39.071c0,0.553-0.447,1-1,1
	s-1-0.447-1-1v-1c0-3.865-3.135-7-7-7h-1c-0.553,0-1-0.447-1-1c0-0.552,0.447-1,1-1h1c4.971,0,9,4.029,9,9V39.071z M51.81,39.071
	c0,0.553-0.447,1-1,1s-1-0.447-1-1v-1c0-6.627-5.373-12-12-12h-1c-0.553,0-1-0.447-1-1c0-0.552,0.447-1,1-1h1
	c7.732,0,14,6.269,14,14V39.071z M56.81,39.071c0,0.553-0.447,1-1,1s-1-0.447-1-1v-1c0-9.389-7.611-17-17-17h-1
	c-0.553,0-1-0.447-1-1c0-0.552,0.447-1,1-1h1c10.492,0,19,8.507,19,19V39.071z"/>
</svg>
