<?xml version="1.0" encoding="utf-8"?>
<!-- Generator: Adobe Illustrator 16.0.0, SVG Export Plug-In . SVG Version: 6.00 Build 0)  -->
<!DOCTYPE svg PUBLIC "-//W3C//DTD SVG 1.1//EN" "http://www.w3.org/Graphics/SVG/1.1/DTD/svg11.dtd">
<svg version="1.1" id="Layer_1" xmlns="http://www.w3.org/2000/svg" xmlns:xlink="http://www.w3.org/1999/xlink" x="0px" y="0px"
	 width="120px" height="120px" viewBox="-22 -22 120 120" enable-background="new -22 -22 120 120" xml:space="preserve">
<path fill="#FFFFFF" d="M37.999-21.667C5.047-21.667-21.667,5.047-21.667,38S5.047,97.667,37.999,97.667S97.666,70.953,97.666,38
	S70.951-21.667,37.999-21.667z M54.625,47.5c0,2.623-2.836,4.75-6.334,4.75s-6.334-2.127-6.334-4.75s2.836-4.75,6.334-4.75
	c0.547,0,1.077,0.052,1.584,0.15v-18.26l-15.834,2.969V52.25c0,2.623-2.835,4.75-6.333,4.75s-6.333-2.127-6.333-4.75
	s2.835-4.75,6.333-4.75l1.583,0.149V23.75L54.625,19V47.5z"/>
</svg>
