<?xml version="1.0" encoding="utf-8"?>
<!-- Generator: Adobe Illustrator 16.0.0, SVG Export Plug-In . SVG Version: 6.00 Build 0)  -->
<!DOCTYPE svg PUBLIC "-//W3C//DTD SVG 1.1//EN" "http://www.w3.org/Graphics/SVG/1.1/DTD/svg11.dtd">
<svg version="1.1" id="Layer_1" xmlns="http://www.w3.org/2000/svg" xmlns:xlink="http://www.w3.org/1999/xlink" x="0px" y="0px"
	 width="120px" height="120px" viewBox="-0.333 -0.345 120 120" enable-background="new -0.333 -0.345 120 120"
	 xml:space="preserve">
<g>
	<path fill="#FFFFFF" d="M59.667-0.012C26.714-0.012,0,26.702,0,59.655s26.714,59.667,59.667,59.667
		c32.953,0,59.666-26.714,59.666-59.667S92.62-0.012,59.667-0.012z M81.167,66.321c0,4.372-3,9-6.5,9h-31.5c-2.624,0-5-4.128-5-8.5
		v-21.5h7v-6h36V66.321z"/>
	<path fill="#FFFFFF" d="M77.167,66.321v-23h-28v23c0,2-0.5,5-1.5,5h26.5C76.667,71.321,77.167,68.821,77.167,66.321z
		 M51.167,46.321h24v3h-24V46.321z M61.167,66.321h-10v-2h10V66.321z M61.167,62.321h-10v-2h10V62.321z M61.167,58.321h-10v-2h10
		V58.321z M61.167,54.321h-10v-2h10V54.321z M63.167,52.321h12v14h-12V52.321z"/>
	<path fill="#FFFFFF" d="M42.167,67.321c0,2.623,0.625,4.25,1.5,4.25s1.5-1.627,1.5-4.25v-18h-3V67.321z"/>
</g>
</svg>
