<?xml version="1.0" encoding="utf-8"?>
<!-- Generator: Adobe Illustrator 16.0.0, SVG Export Plug-In . SVG Version: 6.00 Build 0)  -->
<!DOCTYPE svg PUBLIC "-//W3C//DTD SVG 1.1//EN" "http://www.w3.org/Graphics/SVG/1.1/DTD/svg11.dtd">
<svg version="1.1" id="Layer_1" xmlns="http://www.w3.org/2000/svg" xmlns:xlink="http://www.w3.org/1999/xlink" x="0px" y="0px"
	 width="120px" height="120px" viewBox="-22 -22 120 120" enable-background="new -22 -22 120 120" xml:space="preserve">
<path fill="#FFFFFF" d="M37.999-21.667C5.047-21.667-21.667,5.047-21.667,38S5.047,97.667,37.999,97.667
	c32.953,0,59.668-26.714,59.668-59.667S70.952-21.667,37.999-21.667z M38,13.593c4.371,0,7.916,3.545,7.916,7.918
	c0,4.371-3.545,7.916-7.916,7.916c-4.372,0-7.916-3.545-7.916-7.916C30.084,17.138,33.628,13.593,38,13.593z M22.166,41.677
	c0,0,3.168-11.084,9.5-11.083h12.666c6.334-0.001,9.502,11.083,9.502,11.083l0.465,2.332h-4.885c-0.195-0.542-0.33-0.748-0.33-0.748
	s-2.111-4.223-3.168-4.75l0.244,5.498H29.841l0.243-5.498c-1.057,0.527-3.168,4.749-3.168,4.749s-0.134,0.207-0.33,0.749H21.7
	L22.166,41.677z M46.219,60.687c-2.522,1.104-5.3,1.722-8.22,1.722s-5.697-0.617-8.219-1.722c0-2.887,0-5.774,0-8.837
	c2.784,0,5.523,0,8.264,0c2.679,0,5.359,0,8.175,0C46.219,54.848,46.219,57.736,46.219,60.687z M52.364,56.487h-4.867v-5.931H28.022
	v5.931h-4.392c0,0-4.746-5.675-5.852-9.275c13.555,0,26.88,0,40.441,0C57.114,50.815,52.364,56.487,52.364,56.487z M58.57,46.791
	h-3.708H22.484h-5.005c0,0-1.104-0.311-1.443-1.681h5.016h35.296h3.615C59.636,46.48,58.57,46.791,58.57,46.791z"/>
</svg>
