<?xml version="1.0" encoding="utf-8"?>
<!-- Generator: Adobe Illustrator 16.0.0, SVG Export Plug-In . SVG Version: 6.00 Build 0)  -->
<!DOCTYPE svg PUBLIC "-//W3C//DTD SVG 1.1//EN" "http://www.w3.org/Graphics/SVG/1.1/DTD/svg11.dtd">
<svg version="1.1" id="Layer_1" xmlns="http://www.w3.org/2000/svg" xmlns:xlink="http://www.w3.org/1999/xlink" x="0px" y="0px"
	 width="120px" height="120px" viewBox="0 0 120 120" enable-background="new 0 0 120 120" xml:space="preserve">
<path fill="#1B2845" d="M10.022,49.068c0-0.069,0-0.139,0-0.208c12.28,0.007,24.56,0.008,36.839,0.037
	c0.705,0.002,0.925-0.302,1.127-0.902c3.419-10.144,6.87-20.278,10.293-30.42c0.551-1.633,1.008-3.298,1.51-4.948
	c0.069,0,0.139,0,0.208,0c0.094,0.334,0.174,0.672,0.281,1.002c3.697,11.405,7.408,22.806,11.072,34.222
	c0.299,0.932,0.72,1.203,1.672,1.2c11.901-0.034,23.804-0.023,35.706-0.021c0.416,0,0.831,0.025,1.247,0.039
	c0,0.069,0,0.139,0,0.208c-0.306,0.131-0.647,0.212-0.912,0.401C99.271,56.646,89.485,63.631,79.68,70.59
	c-0.589,0.416-0.708,0.77-0.48,1.441c3.194,9.41,6.37,18.824,9.535,28.244c0.793,2.357,1.531,4.732,2.294,7.1
	c-0.139,0-0.277,0-0.416,0c-0.21-0.266-0.37-0.604-0.637-0.787c-9.812-6.785-19.64-13.551-29.444-20.346
	c-0.605-0.418-0.974-0.363-1.54,0.035c-9.521,6.717-19.062,13.406-28.589,20.115c-0.38,0.268-0.677,0.652-1.013,0.982
	c-0.139,0-0.278,0-0.417,0c3.594-11.514,7.174-23.031,10.804-34.533c0.301-0.953,0.149-1.459-0.657-2.062
	c-8.89-6.646-17.746-13.339-26.619-20.011C11.701,50.167,10.85,49.633,10.022,49.068z M85.953,100.443
	c0.05-0.049,0.099-0.098,0.148-0.146c-8.662-11.643-17.322-23.285-26.126-35.121c-0.045,0.502-0.086,0.734-0.085,0.969
	c0.002,5.168,0.027,10.338-0.003,15.506c-0.004,0.785,0.23,1.248,0.889,1.691c6.178,4.174,12.33,8.387,18.493,12.582
	C81.492,97.438,83.726,98.938,85.953,100.443z M33.781,100.057c0.056,0.037,0.113,0.076,0.17,0.115
	c8.558-11.598,17.115-23.195,25.672-34.793c-0.47-0.068-0.795,0.02-1.116,0.123c-4.749,1.525-9.488,3.08-14.251,4.555
	c-0.835,0.258-1.244,0.664-1.493,1.473c-1.419,4.602-2.883,9.188-4.332,13.777C36.88,90.225,35.331,95.141,33.781,100.057z
	 M60.172,21.121c-0.057,0.012-0.113,0.024-0.17,0.038c0,14.491,0,28.983,0,43.695c3.334-4.637,6.537-9.068,9.697-13.531
	c0.182-0.257,0.115-0.791,0.001-1.142c-2.603-8.001-5.226-15.995-7.849-23.989C61.297,24.5,60.732,22.812,60.172,21.121z
	 M60.176,64.963c0.215,0.158,0.286,0.246,0.375,0.273c4.967,1.535,9.93,3.078,14.907,4.576c0.323,0.096,0.825-0.051,1.12-0.26
	c7.858-5.58,15.7-11.184,23.544-16.785c0.478-0.341,0.938-0.705,1.407-1.058c-0.032-0.054-0.065-0.107-0.099-0.161
	C87.716,56.008,74.002,60.467,60.176,64.963z M18.87,51.441c-0.021,0.081-0.042,0.161-0.063,0.242
	C32.374,56.093,45.939,60.5,59.783,65c-0.373-0.506-0.548-0.758-0.739-0.998c-3.083-3.883-6.184-7.751-9.237-11.658
	c-0.524-0.67-1.069-0.924-1.917-0.921c-7.909,0.031-15.818,0.018-23.727,0.018C22.399,51.441,20.635,51.441,18.87,51.441z"/>
<text transform="matrix(1 0 0 1 0 293)" font-family="'MyriadPro-Regular'" font-size="12">#364157</text>
</svg>
